# Blender v2.77 (sub 0) OBJ File: 'tie.blend'
# www.blender.org
mtllib tie.mtl
o Cube.003_Cube.007
v 2.299339 -0.247197 -0.348495
v 2.299339 0.255072 -0.348495
v 2.301722 -0.247197 0.221339
v 2.301722 0.255072 0.221339
v 1.285057 -0.293926 -0.344598
v 1.285057 0.256747 -0.344598
v 1.287440 -0.293926 0.225237
v 1.287440 0.256747 0.225237
v 2.528430 -0.632113 -0.420965
v 2.528430 0.585129 -0.420965
v 2.531410 -0.632113 0.291891
v 2.531410 0.585129 0.291891
v 0.692124 -0.523824 -0.380114
v 0.692124 0.486645 -0.380114
v 0.694831 -0.523824 0.267257
v 0.694831 0.486645 0.267257
v 2.529000 -3.456000 1.947515
v 2.529000 0.000000 3.018000
v 2.529000 -3.456000 -1.947515
v 2.529000 0.000000 -3.018000
v 2.629000 -3.456000 1.947515
v 2.629000 0.000000 3.018000
v 2.629000 -3.456000 -1.947515
v 2.629000 0.000000 -3.018000
v 2.529000 3.456000 1.947515
v 2.529000 3.456000 -1.947515
v 2.629000 3.456000 1.947515
v 2.629000 3.456000 -1.947515
v 0.000000 -1.000000 0.000000
v 0.723608 -0.447219 0.525725
v -0.276388 -0.447220 0.850649
v -0.894426 -0.447216 0.000000
v -0.276388 -0.447220 -0.850649
v 0.723608 -0.447219 -0.525725
v 0.276388 0.447220 0.850649
v -0.723608 0.447220 0.525725
v -0.723608 0.447220 -0.525725
v 0.276388 0.447220 -0.850649
v 0.894427 0.447216 0.000000
v 0.000000 1.000000 0.000000
v -0.162454 -0.850654 0.499995
v 0.425324 -0.850654 0.309011
v 0.262869 -0.525738 0.809012
v 0.850647 -0.525736 0.000000
v 0.425324 -0.850654 -0.309011
v -0.525730 -0.850652 0.000000
v -0.688188 -0.525736 0.499997
v -0.162454 -0.850654 -0.499995
v -0.688188 -0.525736 -0.499997
v 0.262869 -0.525738 -0.809012
v 0.951058 0.000000 0.309013
v 0.951058 0.000000 -0.309013
v 0.000000 0.000000 1.000000
v 0.587786 0.000000 0.809017
v -0.951057 0.000000 0.309013
v -0.587785 0.000000 0.809017
v -0.587785 0.000000 -0.809017
v -0.951057 0.000000 -0.309013
v 0.587786 0.000000 -0.809017
v 0.000000 0.000000 -1.000000
v 0.688189 0.525736 0.499997
v -0.262869 0.525738 0.809012
v -0.850647 0.525736 0.000000
v -0.262869 0.525738 -0.809012
v 0.688189 0.525736 -0.499997
v 0.162455 0.850654 0.499995
v 0.525730 0.850652 0.000000
v -0.425323 0.850654 0.309011
v -0.425323 0.850654 -0.309011
v 0.162455 0.850654 -0.499995
v -2.612833 -3.456000 1.947515
v -2.612833 0.000000 3.017999
v -2.612833 -3.456000 -1.947515
v -2.612833 0.000000 -3.017999
v -2.512833 -3.456000 1.947515
v -2.512833 0.000000 3.018000
v -2.512834 -3.456000 -1.947515
v -2.512833 0.000000 -3.017999
v -2.612833 3.456000 1.947515
v -2.612833 3.456000 -1.947515
v -2.512833 3.456000 1.947515
v -2.512834 3.456000 -1.947515
v -2.299338 -0.247197 0.348495
v -2.299338 0.255072 0.348495
v -2.301721 -0.247197 -0.221339
v -2.301721 0.255072 -0.221339
v -1.285057 -0.293926 0.344598
v -1.285057 0.256747 0.344598
v -1.287439 -0.293926 -0.225237
v -1.287439 0.256747 -0.225237
v -2.528429 -0.632113 0.420965
v -2.528429 0.585129 0.420965
v -2.531410 -0.632113 -0.291891
v -2.531410 0.585129 -0.291891
v -0.692124 -0.523824 0.380114
v -0.692124 0.486645 0.380114
v -0.694831 -0.523824 -0.267257
v -0.694831 0.486645 -0.267257
vt 0.6753 0.7282
vt 0.6686 0.6931
vt 0.6761 0.6926
vt 0.7333 0.8858
vt 0.8060 0.9097
vt 0.7448 0.9272
vt 0.8032 0.8394
vt 0.8011 0.8683
vt 0.8937 0.8348
vt 0.9296 0.8436
vt 0.9069 0.9492
vt 0.6694 0.7286
vt 0.6755 0.8855
vt 0.6696 0.8859
vt 0.6681 0.7849
vt 0.6620 0.9418
vt 0.6622 0.7846
vt 0.4071 0.6369
vt 0.4436 0.6317
vt 0.4436 0.6410
vt 0.6679 0.9422
vt 0.6612 0.9774
vt 0.7471 0.9580
vt 0.9570 0.7992
vt 0.9663 0.8485
vt 0.4436 0.6394
vt 0.4669 0.6317
vt 0.4669 0.6394
vt 0.8693 0.8437
vt 0.6761 0.9774
vt 0.6693 0.9778
vt 0.6686 0.6931
vt 0.7586 0.8394
vt 0.9272 0.8095
vt 0.4071 0.6277
vt 0.6686 0.9778
vt 0.8036 0.9584
vt 0.4436 0.6317
vt 0.8766 0.9518
vt 0.6619 0.6926
vt 0.6605 0.7282
vt 0.6298 0.8027
vt 0.6612 0.6926
vt 0.8174 0.8797
vt 0.8482 0.9117
vt 0.8195 0.9101
vt 0.8521 0.8452
vt 0.8537 0.8780
vt 0.9645 0.9004
vt 0.9277 0.9359
vt 0.9336 0.9081
vt 0.6301 0.8154
vt 0.6607 0.8855
vt 0.6302 0.8717
vt 0.6830 0.7849
vt 0.6768 0.9418
vt 0.6770 0.7846
vt 0.3815 0.6369
vt 0.4071 0.6277
vt 0.4071 0.6369
vt 0.6828 0.9422
vt 0.6761 0.9774
vt 0.8153 0.9487
vt 0.9636 0.9570
vt 0.9325 0.9570
vt 0.4669 0.6394
vt 0.4902 0.6317
vt 0.4902 0.6394
vt 0.9616 0.8660
vt 0.6612 0.9774
vt 0.6301 0.9047
vt 0.6835 0.6931
vt 0.8172 0.8472
vt 0.9639 0.9320
vt 0.3856 0.6250
vt 0.6835 0.9778
vt 0.8390 0.9526
vt 0.4669 0.6317
vt 0.9306 0.8757
vt 0.6767 0.6926
vt 0.3784 0.3420
vt 0.0663 0.1243
vt 0.3124 0.1292
vt 0.4272 0.5234
vt 0.4892 0.5413
vt 0.4417 0.5646
vt 0.3776 0.7840
vt 0.0694 0.5680
vt 0.3118 0.5678
vt 0.4513 0.4071
vt 0.4924 0.4273
vt 0.4513 0.4290
vt 0.4398 0.9530
vt 0.5775 0.9004
vt 0.5775 0.9530
vt 0.0015 0.3482
vt 0.3100 0.5561
vt 0.0645 0.5603
vt 0.5775 0.7427
vt 0.4398 0.7952
vt 0.4398 0.7427
vt 0.4053 0.4071
vt 0.4068 0.5363
vt -0.0016 0.7800
vt 0.3103 1.0004
vt 0.0628 1.0004
vt 0.7629 0.1648
vt 0.8193 0.1969
vt 0.7499 0.1879
vt 0.8324 0.2296
vt 0.8733 0.1928
vt 0.7075 0.1846
vt 0.7395 0.1529
vt 0.7905 0.1528
vt 0.9115 0.2334
vt 0.7383 0.2403
vt 0.7918 0.2264
vt 0.7679 0.2844
vt 0.6769 0.1899
vt 0.6927 0.2239
vt 0.6329 0.2323
vt 0.7206 0.5833
vt 0.6587 0.6466
vt 0.6860 0.5401
vt 0.9427 0.6219
vt 0.8267 0.5771
vt 0.8774 0.5232
vt 0.8606 0.2830
vt 0.8227 0.2813
vt 0.7006 0.2836
vt 0.5993 0.1668
vt 0.7732 0.5524
vt 0.9089 0.4577
vt 0.7771 0.3219
vt 0.8252 0.3420
vt 0.7646 0.3696
vt 0.6872 0.3232
vt 0.7358 0.3268
vt 0.7037 0.3792
vt 0.6520 0.4608
vt 0.6349 0.4022
vt 0.6985 0.4439
vt 0.8115 0.4902
vt 0.7242 0.4949
vt 0.7766 0.4708
vt 0.8829 0.3911
vt 0.8592 0.4545
vt 0.8096 0.3877
vt 0.7523 0.3989
vt 0.5388 0.4641
vt 0.6061 0.3424
vt 0.8801 0.3291
vt 0.5571 0.6417
vt 0.6753 0.1546
vt 0.6640 0.2791
vt 0.9449 0.1609
vt 0.8293 0.1290
vt 0.7641 0.1069
vt 0.6911 0.1184
vt -0.0001 0.7827
vt 0.3117 0.5691
vt 0.3811 0.7838
vt 0.4513 0.4510
vt 0.5045 0.4604
vt 0.4272 0.4621
vt 0.3761 0.3446
vt 0.0645 0.1261
vt -0.0018 0.3428
vt 0.4513 0.4290
vt 0.4924 0.4493
vt 0.4513 0.4510
vt 0.4398 0.9004
vt 0.5775 0.8478
vt 0.5775 0.9004
vt 0.0645 1.0000
vt 0.5775 0.7952
vt 0.4398 0.8478
vt 0.4398 0.7952
vt 0.3993 0.4305
vt 0.3873 0.4630
vt 0.3115 0.5559
vt 0.4612 0.5133
vt 0.4924 0.4054
vt 0.4398 0.9004
vt 0.5775 0.7952
vt 0.4098 0.4185
vt 0.3954 0.5645
vt 0.0691 0.5672
vt 0.4924 0.4493
vt 0.3112 0.1281
vt 0.4924 0.4273
vt 0.4398 0.8478
vt 0.3084 0.9995
vt 0.5775 0.8478
vt 0.3888 0.4480
vt 0.3753 0.4759
vt 0.0638 0.5595
vn 0.8590 -0.5119 -0.0036
vn -0.0038 0.0000 -1.0000
vn -0.0707 0.0000 -0.9975
vn 0.0038 0.0000 1.0000
vn -0.0460 -0.9989 0.0002
vn -0.0017 1.0000 0.0000
vn -1.0000 0.0000 0.0042
vn 0.8211 0.5707 -0.0034
vn 0.2936 0.0000 -0.9559
vn 0.3016 0.0000 0.9534
vn 1.0000 0.0000 -0.0042
vn -0.0598 0.0000 0.9982
vn -0.3616 -0.9323 0.0015
vn -0.3616 0.9323 0.0015
vn -0.8590 -0.5119 0.0036
vn 0.0707 0.0000 0.9975
vn 0.0460 -0.9989 -0.0002
vn 0.0017 1.0000 -0.0000
vn -0.8211 0.5707 0.0034
vn -0.2936 0.0000 0.9559
vn -0.3016 0.0000 -0.9534
vn 0.0598 0.0000 -0.9982
vn 0.3616 -0.9323 -0.0015
vn 0.3616 0.9323 -0.0015
vn -1.0000 0.0000 0.0000
vn 0.0000 -0.2959 -0.9552
vn 1.0000 0.0000 0.0000
vn 0.0000 -0.2959 0.9552
vn 0.0000 -1.0000 0.0000
vn 0.0000 1.0000 0.0000
vn 0.0000 0.2959 0.9552
vn 0.0000 0.2959 -0.9552
vn 0.1024 -0.9435 0.3151
vn 0.7002 -0.6617 0.2680
vn -0.2680 -0.9435 0.1947
vn -0.2680 -0.9435 -0.1947
vn 0.1024 -0.9435 -0.3151
vn 0.9050 -0.3304 0.2680
vn 0.0247 -0.3304 0.9435
vn -0.8897 -0.3304 0.3151
vn -0.5746 -0.3304 -0.7488
vn 0.5346 -0.3304 -0.7779
vn 0.8026 -0.1256 0.5831
vn -0.3066 -0.1256 0.9435
vn -0.9921 -0.1256 0.0000
vn -0.3066 -0.1256 -0.9435
vn 0.8026 -0.1256 -0.5831
vn 0.4089 0.6617 0.6284
vn -0.4713 0.6617 0.5831
vn -0.7002 0.6617 -0.2680
vn 0.0385 0.6617 -0.7488
vn 0.7240 0.6617 -0.1947
vn 0.2680 0.9435 -0.1947
vn 0.4911 0.7947 -0.3568
vn 0.4089 0.6617 -0.6284
vn -0.1024 0.9435 -0.3151
vn -0.1876 0.7947 -0.5773
vn -0.4713 0.6617 -0.5831
vn -0.3313 0.9435 0.0000
vn -0.6071 0.7947 0.0000
vn -0.7002 0.6617 0.2680
vn -0.1024 0.9435 0.3151
vn -0.1876 0.7947 0.5773
vn 0.0385 0.6617 0.7488
vn 0.2680 0.9435 0.1947
vn 0.4911 0.7947 0.3568
vn 0.7240 0.6617 0.1947
vn 0.8897 0.3304 -0.3151
vn 0.7947 0.1876 -0.5773
vn 0.5746 0.3304 -0.7488
vn -0.0247 0.3304 -0.9435
vn -0.3035 0.1876 -0.9342
vn -0.5346 0.3304 -0.7779
vn -0.9050 0.3304 -0.2680
vn -0.9822 0.1876 0.0000
vn -0.9050 0.3304 0.2680
vn -0.5346 0.3304 0.7779
vn -0.3035 0.1876 0.9342
vn -0.0247 0.3304 0.9435
vn 0.5746 0.3304 0.7488
vn 0.7947 0.1876 0.5773
vn 0.8897 0.3304 0.3151
vn 0.3066 0.1256 -0.9435
vn 0.3035 -0.1876 -0.9342
vn 0.0247 -0.3304 -0.9435
vn -0.8026 0.1256 -0.5831
vn -0.7947 -0.1876 -0.5773
vn -0.8897 -0.3304 -0.3151
vn -0.8026 0.1256 0.5831
vn -0.7947 -0.1876 0.5773
vn -0.5746 -0.3304 0.7488
vn 0.3066 0.1256 0.9435
vn 0.3035 -0.1876 0.9342
vn 0.5346 -0.3304 0.7779
vn 0.9921 0.1256 0.0000
vn 0.9822 -0.1876 0.0000
vn 0.9050 -0.3304 -0.2680
vn 0.4713 -0.6617 -0.5831
vn 0.1876 -0.7947 -0.5773
vn -0.0385 -0.6617 -0.7488
vn -0.4089 -0.6617 -0.6284
vn -0.4911 -0.7947 -0.3568
vn -0.7240 -0.6617 -0.1947
vn -0.7240 -0.6617 0.1947
vn -0.4911 -0.7947 0.3568
vn -0.4089 -0.6617 0.6284
vn 0.7002 -0.6617 -0.2680
vn 0.6071 -0.7947 0.0000
vn 0.3313 -0.9435 0.0000
vn -0.0385 -0.6617 0.7488
vn 0.1876 -0.7947 0.5773
vn 0.4713 -0.6617 0.5831
usemtl Material.000
s off
f 85/1/1 91/2/1 93/3/1
f 90/4/2 85/5/2 86/6/2
f 90/4/3 97/7/3 89/8/3
f 88/9/4 83/10/4 87/11/4
f 83/12/5 89/13/5 87/14/5
f 90/15/6 84/16/6 88/17/6
f 94/18/7 91/19/7 92/20/7
f 86/21/8 92/22/8 84/16/8
f 85/5/9 94/23/9 86/6/9
f 83/10/10 92/24/10 91/25/10
f 96/26/11 97/27/11 98/28/11
f 87/11/12 96/29/12 88/9/12
f 87/14/13 97/30/13 95/31/13
f 88/17/14 98/32/14 90/15/14
f 85/1/1 83/12/1 91/2/1
f 90/4/2 89/8/2 85/5/2
f 90/4/3 98/33/3 97/7/3
f 88/9/4 84/34/4 83/10/4
f 83/12/5 85/1/5 89/13/5
f 90/15/6 86/21/6 84/16/6
f 94/18/7 93/35/7 91/19/7
f 86/21/8 94/36/8 92/22/8
f 85/5/9 93/37/9 94/23/9
f 83/10/10 84/34/10 92/24/10
f 96/26/11 95/38/11 97/27/11
f 87/11/12 95/39/12 96/29/12
f 87/14/13 89/13/13 97/30/13
f 88/17/14 96/40/14 98/32/14
usemtl Material.001
f 3/41/15 9/42/15 11/43/15
f 8/44/4 3/45/4 4/46/4
f 8/44/16 15/47/16 7/48/16
f 6/49/2 1/50/2 5/51/2
f 1/52/17 7/53/17 5/54/17
f 8/55/18 2/56/18 6/57/18
f 12/58/11 9/59/11 10/60/11
f 4/61/19 10/62/19 2/56/19
f 3/45/20 12/63/20 4/46/20
f 1/50/21 10/64/21 9/65/21
f 14/66/7 15/67/7 16/68/7
f 5/51/22 14/69/22 6/49/22
f 5/54/23 15/70/23 13/71/23
f 6/57/24 16/72/24 8/55/24
f 3/41/15 1/52/15 9/42/15
f 8/44/4 7/48/4 3/45/4
f 8/44/16 16/73/16 15/47/16
f 6/49/2 2/74/2 1/50/2
f 1/52/17 3/41/17 7/53/17
f 8/55/18 4/61/18 2/56/18
f 12/58/11 11/75/11 9/59/11
f 4/61/19 12/76/19 10/62/19
f 3/45/20 11/77/20 12/63/20
f 1/50/21 2/74/21 10/64/21
f 14/66/7 13/78/7 15/67/7
f 5/51/22 13/79/22 14/69/22
f 5/54/23 7/53/23 15/70/23
f 6/57/24 14/80/24 16/72/24
f 18/81/25 19/82/25 17/83/25
f 24/84/26 19/85/26 20/86/26
f 24/87/27 21/88/27 23/89/27
f 18/90/28 21/91/28 22/92/28
f 19/93/29 21/94/29 17/95/29
f 20/96/25 25/97/25 26/98/25
f 28/99/30 25/100/30 27/101/30
f 22/92/31 25/102/31 18/90/31
f 20/86/32 28/103/32 24/84/32
f 22/104/27 28/105/27 27/106/27
f 29/107/33 42/108/33 41/109/33
f 30/110/34 42/108/34 44/111/34
f 29/107/35 41/109/35 46/112/35
f 29/107/36 46/112/36 48/113/36
f 29/107/37 48/113/37 45/114/37
f 30/110/38 44/111/38 51/115/38
f 31/116/39 43/117/39 53/118/39
f 32/119/40 47/120/40 55/121/40
f 33/122/41 49/123/41 57/124/41
f 34/125/42 50/126/42 59/127/42
f 30/110/43 51/128/43 54/129/43
f 31/116/44 53/118/44 56/130/44
f 32/119/45 55/121/45 58/131/45
f 33/122/46 57/124/46 60/132/46
f 34/125/47 59/127/47 52/133/47
f 35/134/48 61/135/48 66/136/48
f 36/137/49 62/138/49 68/139/49
f 37/140/50 63/141/50 69/142/50
f 38/143/51 64/144/51 70/145/51
f 39/146/52 65/147/52 67/148/52
f 67/148/53 70/145/53 40/149/53
f 67/148/54 65/147/54 70/145/54
f 65/147/55 38/143/55 70/145/55
f 70/145/56 69/142/56 40/149/56
f 70/145/57 64/144/57 69/142/57
f 64/144/58 37/140/58 69/142/58
f 69/142/59 68/139/59 40/149/59
f 69/142/60 63/141/60 68/139/60
f 63/141/61 36/137/61 68/139/61
f 68/139/62 66/136/62 40/149/62
f 68/139/63 62/138/63 66/136/63
f 62/138/64 35/134/64 66/136/64
f 66/136/65 67/148/65 40/149/65
f 66/136/66 61/135/66 67/148/66
f 61/135/67 39/146/67 67/148/67
f 52/133/68 65/147/68 39/146/68
f 52/133/69 59/127/69 65/147/69
f 59/127/70 38/143/70 65/147/70
f 60/132/71 64/144/71 38/143/71
f 60/132/72 57/124/72 64/144/72
f 57/124/73 37/140/73 64/144/73
f 58/150/74 63/141/74 37/140/74
f 58/150/75 55/151/75 63/141/75
f 55/151/76 36/137/76 63/141/76
f 56/130/77 62/138/77 36/137/77
f 56/130/78 53/118/78 62/138/78
f 53/118/79 35/134/79 62/138/79
f 54/129/80 61/135/80 35/134/80
f 54/129/81 51/128/81 61/135/81
f 51/152/82 39/146/82 61/135/82
f 59/127/83 60/132/83 38/143/83
f 59/127/84 50/126/84 60/132/84
f 50/126/85 33/122/85 60/132/85
f 57/124/86 58/153/86 37/140/86
f 57/124/87 49/123/87 58/153/87
f 49/154/88 32/119/88 58/131/88
f 55/155/89 56/130/89 36/137/89
f 55/155/90 47/120/90 56/130/90
f 47/120/91 31/116/91 56/130/91
f 53/118/92 54/129/92 35/134/92
f 53/118/93 43/117/93 54/129/93
f 43/117/94 30/110/94 54/129/94
f 51/152/95 52/133/95 39/146/95
f 51/115/96 44/111/96 52/156/96
f 44/111/97 34/157/97 52/156/97
f 45/114/98 50/158/98 34/157/98
f 45/114/99 48/113/99 50/158/99
f 48/113/100 33/159/100 50/158/100
f 48/113/101 49/154/101 33/159/101
f 48/113/102 46/112/102 49/154/102
f 46/112/103 32/119/103 49/154/103
f 46/112/104 47/120/104 32/119/104
f 46/112/105 41/109/105 47/120/105
f 41/109/106 31/116/106 47/120/106
f 44/111/107 45/114/107 34/157/107
f 44/111/108 42/108/108 45/114/108
f 42/108/109 29/107/109 45/114/109
f 41/109/110 43/117/110 31/116/110
f 41/109/111 42/108/111 43/117/111
f 42/108/112 30/110/112 43/117/112
f 74/160/25 71/161/25 72/162/25
f 78/163/26 73/164/26 74/165/26
f 76/166/27 77/167/27 78/168/27
f 72/169/28 75/170/28 76/171/28
f 73/172/29 75/173/29 71/174/29
f 72/162/25 80/175/25 74/160/25
f 82/176/30 79/177/30 81/178/30
f 76/171/31 79/179/31 72/169/31
f 74/165/32 82/180/32 78/163/32
f 78/168/27 81/181/27 76/166/27
f 18/81/25 20/96/25 19/82/25
f 24/84/26 23/182/26 19/85/26
f 24/87/27 22/104/27 21/88/27
f 18/90/28 17/183/28 21/91/28
f 19/93/29 23/184/29 21/94/29
f 20/96/25 18/81/25 25/97/25
f 28/99/30 26/185/30 25/100/30
f 22/92/31 27/186/31 25/102/31
f 20/86/32 26/187/32 28/103/32
f 22/104/27 24/87/27 28/105/27
f 74/160/25 73/188/25 71/161/25
f 78/163/26 77/189/26 73/164/26
f 76/166/27 75/190/27 77/167/27
f 72/169/28 71/191/28 75/170/28
f 73/172/29 77/192/29 75/173/29
f 72/162/25 79/193/25 80/175/25
f 82/176/30 80/194/30 79/177/30
f 76/171/31 81/195/31 79/179/31
f 74/165/32 80/196/32 82/180/32
f 78/168/27 82/197/27 81/181/27
