# Blender v2.77 (sub 0) OBJ File: 'tie1.blend'
# www.blender.org
mtllib tie.mtl
o Cube.003_Cube.007
v 2.299339 -0.247197 -0.348495
v 2.299339 0.255072 -0.348495
v 2.301722 -0.247197 0.221339
v 2.301722 0.255072 0.221339
v 1.285057 -0.293926 -0.344598
v 1.285057 0.256747 -0.344598
v 1.287440 -0.293926 0.225237
v 1.287440 0.256747 0.225237
v 2.528430 -0.632113 -0.420965
v 2.528430 0.585129 -0.420965
v 2.531410 -0.632113 0.291891
v 2.531410 0.585129 0.291891
v 0.692124 -0.523824 -0.380114
v 0.692124 0.486645 -0.380114
v 0.694831 -0.523824 0.267257
v 0.694831 0.486645 0.267257
v 2.529000 -3.456000 1.947515
v 2.529000 0.000000 3.018000
v 2.529000 -3.456000 -1.947515
v 2.529000 0.000000 -3.018000
v 2.629000 -3.456000 1.947515
v 2.629000 0.000000 3.018000
v 2.629000 -3.456000 -1.947515
v 2.629000 0.000000 -3.018000
v 2.529000 3.456000 1.947515
v 2.529000 3.456000 -1.947515
v 2.629000 3.456000 1.947515
v 2.629000 3.456000 -1.947515
v 0.000000 -1.000000 0.000000
v 0.723608 -0.447219 0.525725
v -0.276388 -0.447220 0.850649
v -0.894426 -0.447216 0.000000
v -0.276388 -0.447220 -0.850649
v 0.723608 -0.447219 -0.525725
v 0.276388 0.447220 0.850649
v -0.723608 0.447220 0.525725
v -0.723608 0.447220 -0.525725
v 0.276388 0.447220 -0.850649
v 0.894427 0.447216 0.000000
v 0.000000 1.000000 0.000000
v -0.162454 -0.850654 0.499995
v 0.425324 -0.850654 0.309011
v 0.262869 -0.525738 0.809012
v 0.850647 -0.525736 0.000000
v 0.425324 -0.850654 -0.309011
v -0.525730 -0.850652 0.000000
v -0.688188 -0.525736 0.499997
v -0.162454 -0.850654 -0.499995
v -0.688188 -0.525736 -0.499997
v 0.262869 -0.525738 -0.809012
v 0.951058 0.000000 0.309013
v 0.951058 0.000000 -0.309013
v 0.000000 0.000000 1.000000
v 0.587786 0.000000 0.809017
v -0.951057 0.000000 0.309013
v -0.587785 0.000000 0.809017
v -0.587785 0.000000 -0.809017
v -0.951057 0.000000 -0.309013
v 0.587786 0.000000 -0.809017
v 0.000000 0.000000 -1.000000
v 0.688189 0.525736 0.499997
v -0.262869 0.525738 0.809012
v -0.850647 0.525736 0.000000
v -0.262869 0.525738 -0.809012
v 0.688189 0.525736 -0.499997
v 0.162455 0.850654 0.499995
v 0.525730 0.850652 0.000000
v -0.425323 0.850654 0.309011
v -0.425323 0.850654 -0.309011
v 0.162455 0.850654 -0.499995
v -2.612833 -3.456000 1.947515
v -2.612833 0.000000 3.017999
v -2.612833 -3.456000 -1.947515
v -2.612833 0.000000 -3.017999
v -2.512833 -3.456000 1.947515
v -2.512833 0.000000 3.018000
v -2.512834 -3.456000 -1.947515
v -2.512833 0.000000 -3.017999
v -2.612833 3.456000 1.947515
v -2.612833 3.456000 -1.947515
v -2.512833 3.456000 1.947515
v -2.512834 3.456000 -1.947515
v -2.299338 -0.247197 0.348495
v -2.299338 0.255072 0.348495
v -2.301721 -0.247197 -0.221339
v -2.301721 0.255072 -0.221339
v -1.285057 -0.293926 0.344598
v -1.285057 0.256747 0.344598
v -1.287439 -0.293926 -0.225237
v -1.287439 0.256747 -0.225237
v -2.528429 -0.632113 0.420965
v -2.528429 0.585129 0.420965
v -2.531410 -0.632113 -0.291891
v -2.531410 0.585129 -0.291891
v -0.692124 -0.523824 0.380114
v -0.692124 0.486645 0.380114
v -0.694831 -0.523824 -0.267257
v -0.694831 0.486645 -0.267257
vt 0.1015 0.4408
vt 0.0761 0.5023
vt 0.1021 0.4114
vt 0.0258 0.5932
vt -0.0002 0.5672
vt 0.0236 0.5681
vt -0.0024 0.6222
vt -0.0042 0.5952
vt 0.0569 0.5617
vt 0.0270 0.5915
vt 0.0314 0.5685
vt 0.0764 0.5129
vt 0.1016 0.5708
vt 0.0764 0.5594
vt 0.6595 0.3942
vt 0.6545 0.5239
vt 0.6546 0.3939
vt 0.2187 0.4643
vt 0.2110 0.4431
vt 0.2187 0.4431
vt 0.6594 0.5242
vt 0.6538 0.5533
vt 0.0264 0.5361
vt 0.0569 0.6085
vt 0.0312 0.6089
vt 0.1026 0.6104
vt 0.1218 0.6040
vt 0.1218 0.6104
vt 0.0540 0.5333
vt 0.1021 0.6468
vt 0.0763 0.5867
vt 0.6600 0.3182
vt 0.0264 0.6201
vt 0.0568 0.5878
vt 0.2088 0.4609
vt 0.6600 0.5537
vt 0.0068 0.5333
vt 0.1026 0.6040
vt 0.0285 0.5418
vt 0.6544 0.3179
vt 0.4608 0.9411
vt 0.6387 0.6848
vt 0.6387 0.8844
vt 0.2381 0.5652
vt 0.2739 0.5257
vt 0.2739 0.5695
vt 0.4610 0.3174
vt 0.6378 0.0588
vt 0.6378 0.2650
vt 0.6586 0.5923
vt 0.6412 0.6259
vt 0.6405 0.5919
vt 0.2816 0.5252
vt 0.2381 0.4114
vt 0.2816 0.4114
vt 0.4555 0.6295
vt 0.2838 0.8846
vt 0.2821 0.6874
vt 0.2164 0.4720
vt 0.1026 0.5155
vt 0.1026 0.4720
vt 0.6593 0.5542
vt 0.2402 0.5850
vt 0.4645 0.0038
vt 0.2821 0.2616
vt 0.2842 0.0589
vt 0.1463 0.3629
vt 0.0999 0.3360
vt 0.1572 0.3440
vt 0.0893 0.3089
vt 0.0553 0.3390
vt 0.1923 0.3470
vt 0.1655 0.3730
vt 0.1234 0.3727
vt 0.0240 0.3051
vt 0.1672 0.3008
vt 0.1229 0.3119
vt 0.1431 0.2640
vt 0.2176 0.3429
vt 0.2048 0.3146
vt 0.2543 0.3081
vt 0.1844 0.0173
vt 0.2183 0.0038
vt 0.2127 0.0532
vt 0.0316 0.0206
vt 0.0966 0.0216
vt 0.0543 0.0658
vt 0.0664 0.2645
vt 0.0977 0.2662
vt 0.1987 0.2652
vt 0.2816 0.3625
vt 0.1407 0.0424
vt 0.0278 0.1197
vt 0.1357 0.2330
vt 0.0961 0.2160
vt 0.1464 0.1936
vt 0.2101 0.2326
vt 0.1699 0.2292
vt 0.1969 0.1862
vt 0.2402 0.1191
vt 0.2539 0.1677
vt 0.2016 0.1326
vt 0.1085 0.0935
vt 0.1807 0.0903
vt 0.1373 0.1099
vt 0.0488 0.1750
vt 0.0689 0.1227
vt 0.1093 0.1784
vt 0.1568 0.1695
vt 0.2816 0.1360
vt 0.2773 0.2173
vt 0.0506 0.2263
vt 0.2613 0.0680
vt 0.2186 0.3720
vt 0.2289 0.2692
vt -0.0042 0.3648
vt 0.0911 0.3921
vt 0.1449 0.4108
vt 0.2054 0.4019
vt 0.8183 0.3140
vt 0.6383 0.0596
vt 0.8188 0.0038
vt 0.2192 0.5408
vt 0.2322 0.4981
vt 0.2260 0.5617
vt 0.4604 0.6290
vt 0.6399 0.3708
vt 0.4597 0.3179
vt 0.2374 0.4635
vt 0.2195 0.4970
vt 0.2192 0.4629
vt 0.2164 0.5600
vt 0.1026 0.6035
vt 0.1026 0.5600
vt 0.9953 0.2609
vt 0.1026 0.5595
vt 0.2164 0.5160
vt 0.2164 0.5595
vt 0.2376 0.4205
vt 0.2227 0.5946
vt 0.2831 0.5775
vt 0.2430 0.5363
vt 0.6593 0.6263
vt 0.2381 0.5252
vt 0.2164 0.5155
vt 0.6498 0.5577
vt 0.2570 0.6038
vt 0.6384 0.2618
vt 0.2219 0.5069
vt 0.6399 0.5754
vt 0.2376 0.4976
vt 0.2164 0.6035
vt 0.9953 0.0580
vt 0.1026 0.5160
vt 0.2235 0.4114
vt 0.2322 0.6057
vt 0.2821 0.3741
vt 0.6527 0.3473
vt 0.6471 0.3183
vt 0.6533 0.3179
vt 0.1627 0.4114
vt 0.1428 0.4715
vt 0.1284 0.4209
vt 0.2010 0.4691
vt 0.1771 0.4674
vt 0.0549 0.5069
vt 0.0258 0.4976
vt 0.0505 0.4118
vt 0.6478 0.3476
vt 0.6528 0.4774
vt 0.6479 0.4777
vt 0.6462 0.3942
vt 0.6411 0.5239
vt 0.6413 0.3939
vt 0.2111 0.4122
vt 0.2187 0.4417
vt 0.2111 0.4425
vt 0.6460 0.5242
vt 0.6405 0.5533
vt 0.1029 0.4228
vt 0.0007 0.5328
vt -0.0042 0.4916
vt 0.2015 0.4114
vt 0.2079 0.4306
vt 0.2015 0.4306
vt 0.0756 0.5010
vt 0.6533 0.5533
vt 0.6477 0.5537
vt 0.6466 0.3182
vt 0.2010 0.4322
vt 0.0259 0.5259
vt 0.2187 0.4114
vt 0.6466 0.5537
vt 0.1026 0.4695
vt 0.2079 0.4114
vt 0.0756 0.4114
vt 0.6410 0.3179
vn -0.8590 -0.5119 0.0036
vn 0.0038 0.0000 1.0000
vn 0.0707 0.0000 0.9975
vn -0.0038 0.0000 -1.0000
vn 0.0460 -0.9989 -0.0002
vn 0.0017 1.0000 -0.0000
vn 1.0000 0.0000 -0.0042
vn -0.8211 0.5707 0.0034
vn -0.2936 0.0000 0.9559
vn -0.3016 0.0000 -0.9534
vn -1.0000 0.0000 0.0042
vn 0.0598 0.0000 -0.9982
vn 0.3616 -0.9323 -0.0015
vn 0.3616 0.9323 -0.0015
vn -1.0000 0.0000 0.0000
vn 0.0000 -0.2959 -0.9552
vn 1.0000 0.0000 0.0000
vn 0.0000 -0.2959 0.9552
vn 0.0000 -1.0000 0.0000
vn 0.0000 1.0000 0.0000
vn 0.0000 0.2959 0.9552
vn 0.0000 0.2959 -0.9552
vn 0.1024 -0.9435 0.3151
vn 0.7002 -0.6617 0.2680
vn -0.2680 -0.9435 0.1947
vn -0.2680 -0.9435 -0.1947
vn 0.1024 -0.9435 -0.3151
vn 0.9050 -0.3304 0.2680
vn 0.0247 -0.3304 0.9435
vn -0.8897 -0.3304 0.3151
vn -0.5746 -0.3304 -0.7488
vn 0.5346 -0.3304 -0.7779
vn 0.8026 -0.1256 0.5831
vn -0.3066 -0.1256 0.9435
vn -0.9921 -0.1256 0.0000
vn -0.3066 -0.1256 -0.9435
vn 0.8026 -0.1256 -0.5831
vn 0.4089 0.6617 0.6284
vn -0.4713 0.6617 0.5831
vn -0.7002 0.6617 -0.2680
vn 0.0385 0.6617 -0.7488
vn 0.7240 0.6617 -0.1947
vn 0.2680 0.9435 -0.1947
vn 0.4911 0.7947 -0.3568
vn 0.4089 0.6617 -0.6284
vn -0.1024 0.9435 -0.3151
vn -0.1876 0.7947 -0.5773
vn -0.4713 0.6617 -0.5831
vn -0.3313 0.9435 0.0000
vn -0.6071 0.7947 0.0000
vn -0.7002 0.6617 0.2680
vn -0.1024 0.9435 0.3151
vn -0.1876 0.7947 0.5773
vn 0.0385 0.6617 0.7488
vn 0.2680 0.9435 0.1947
vn 0.4911 0.7947 0.3568
vn 0.7240 0.6617 0.1947
vn 0.8897 0.3304 -0.3151
vn 0.7947 0.1876 -0.5773
vn 0.5746 0.3304 -0.7488
vn -0.0247 0.3304 -0.9435
vn -0.3035 0.1876 -0.9342
vn -0.5346 0.3304 -0.7779
vn -0.9050 0.3304 -0.2680
vn -0.9822 0.1876 0.0000
vn -0.9050 0.3304 0.2680
vn -0.5346 0.3304 0.7779
vn -0.3035 0.1876 0.9342
vn -0.0247 0.3304 0.9435
vn 0.5746 0.3304 0.7488
vn 0.7947 0.1876 0.5773
vn 0.8897 0.3304 0.3151
vn 0.3066 0.1256 -0.9435
vn 0.3035 -0.1876 -0.9342
vn 0.0247 -0.3304 -0.9435
vn -0.8026 0.1256 -0.5831
vn -0.7947 -0.1876 -0.5773
vn -0.8897 -0.3304 -0.3151
vn -0.8026 0.1256 0.5831
vn -0.7947 -0.1876 0.5773
vn -0.5746 -0.3304 0.7488
vn 0.3066 0.1256 0.9435
vn 0.3035 -0.1876 0.9342
vn 0.5346 -0.3304 0.7779
vn 0.9921 0.1256 0.0000
vn 0.9822 -0.1876 0.0000
vn 0.9050 -0.3304 -0.2680
vn 0.4713 -0.6617 -0.5831
vn 0.1876 -0.7947 -0.5773
vn -0.0385 -0.6617 -0.7488
vn -0.4089 -0.6617 -0.6284
vn -0.4911 -0.7947 -0.3568
vn -0.7240 -0.6617 -0.1947
vn -0.7240 -0.6617 0.1947
vn -0.4911 -0.7947 0.3568
vn -0.4089 -0.6617 0.6284
vn 0.7002 -0.6617 -0.2680
vn 0.6071 -0.7947 0.0000
vn 0.3313 -0.9435 0.0000
vn -0.0385 -0.6617 0.7488
vn 0.1876 -0.7947 0.5773
vn 0.4713 -0.6617 0.5831
vn 0.8590 -0.5119 -0.0036
vn -0.0707 0.0000 -0.9975
vn -0.0460 -0.9989 0.0002
vn -0.0017 1.0000 0.0000
vn 0.8211 0.5707 -0.0034
vn 0.2936 0.0000 -0.9559
vn 0.3016 0.0000 0.9534
vn -0.0598 0.0000 0.9982
vn -0.3616 -0.9323 0.0015
vn -0.3616 0.9323 0.0015
usemtl None
s off
f 3/1/1 9/2/1 11/3/1
f 8/4/2 3/5/2 4/6/2
f 8/4/3 15/7/3 7/8/3
f 6/9/4 1/10/4 5/11/4
f 1/12/5 7/13/5 5/14/5
f 8/15/6 2/16/6 6/17/6
f 12/18/7 9/19/7 10/20/7
f 4/21/8 10/22/8 2/16/8
f 3/5/9 12/23/9 4/6/9
f 1/10/10 10/24/10 9/25/10
f 14/26/11 15/27/11 16/28/11
f 5/11/12 14/29/12 6/9/12
f 5/14/13 15/30/13 13/31/13
f 6/17/14 16/32/14 8/15/14
f 3/1/1 1/12/1 9/2/1
f 8/4/2 7/8/2 3/5/2
f 8/4/3 16/33/3 15/7/3
f 6/9/4 2/34/4 1/10/4
f 1/12/5 3/1/5 7/13/5
f 8/15/6 4/21/6 2/16/6
f 12/18/7 11/35/7 9/19/7
f 4/21/8 12/36/8 10/22/8
f 3/5/9 11/37/9 12/23/9
f 1/10/10 2/34/10 10/24/10
f 14/26/11 13/38/11 15/27/11
f 5/11/12 13/39/12 14/29/12
f 5/14/13 7/13/13 15/30/13
f 6/17/14 14/40/14 16/32/14
f 18/41/15 19/42/15 17/43/15
f 24/44/16 19/45/16 20/46/16
f 24/47/17 21/48/17 23/49/17
f 18/50/18 21/51/18 22/52/18
f 19/53/19 21/54/19 17/55/19
f 20/56/15 25/57/15 26/58/15
f 28/59/20 25/60/20 27/61/20
f 22/52/21 25/62/21 18/50/21
f 20/46/22 28/63/22 24/44/22
f 22/64/17 28/65/17 27/66/17
f 29/67/23 42/68/23 41/69/23
f 30/70/24 42/68/24 44/71/24
f 29/67/25 41/69/25 46/72/25
f 29/67/26 46/72/26 48/73/26
f 29/67/27 48/73/27 45/74/27
f 30/70/28 44/71/28 51/75/28
f 31/76/29 43/77/29 53/78/29
f 32/79/30 47/80/30 55/81/30
f 33/82/31 49/83/31 57/84/31
f 34/85/32 50/86/32 59/87/32
f 30/70/33 51/88/33 54/89/33
f 31/76/34 53/78/34 56/90/34
f 32/79/35 55/81/35 58/91/35
f 33/82/36 57/84/36 60/92/36
f 34/85/37 59/87/37 52/93/37
f 35/94/38 61/95/38 66/96/38
f 36/97/39 62/98/39 68/99/39
f 37/100/40 63/101/40 69/102/40
f 38/103/41 64/104/41 70/105/41
f 39/106/42 65/107/42 67/108/42
f 67/108/43 70/105/43 40/109/43
f 67/108/44 65/107/44 70/105/44
f 65/107/45 38/103/45 70/105/45
f 70/105/46 69/102/46 40/109/46
f 70/105/47 64/104/47 69/102/47
f 64/104/48 37/100/48 69/102/48
f 69/102/49 68/99/49 40/109/49
f 69/102/50 63/101/50 68/99/50
f 63/101/51 36/97/51 68/99/51
f 68/99/52 66/96/52 40/109/52
f 68/99/53 62/98/53 66/96/53
f 62/98/54 35/94/54 66/96/54
f 66/96/55 67/108/55 40/109/55
f 66/96/56 61/95/56 67/108/56
f 61/95/57 39/106/57 67/108/57
f 52/93/58 65/107/58 39/106/58
f 52/93/59 59/87/59 65/107/59
f 59/87/60 38/103/60 65/107/60
f 60/92/61 64/104/61 38/103/61
f 60/92/62 57/84/62 64/104/62
f 57/84/63 37/100/63 64/104/63
f 58/110/64 63/101/64 37/100/64
f 58/110/65 55/111/65 63/101/65
f 55/111/66 36/97/66 63/101/66
f 56/90/67 62/98/67 36/97/67
f 56/90/68 53/78/68 62/98/68
f 53/78/69 35/94/69 62/98/69
f 54/89/70 61/95/70 35/94/70
f 54/89/71 51/88/71 61/95/71
f 51/112/72 39/106/72 61/95/72
f 59/87/73 60/92/73 38/103/73
f 59/87/74 50/86/74 60/92/74
f 50/86/75 33/82/75 60/92/75
f 57/84/76 58/113/76 37/100/76
f 57/84/77 49/83/77 58/113/77
f 49/114/78 32/79/78 58/91/78
f 55/115/79 56/90/79 36/97/79
f 55/115/80 47/80/80 56/90/80
f 47/80/81 31/76/81 56/90/81
f 53/78/82 54/89/82 35/94/82
f 53/78/83 43/77/83 54/89/83
f 43/77/84 30/70/84 54/89/84
f 51/112/85 52/93/85 39/106/85
f 51/75/86 44/71/86 52/116/86
f 44/71/87 34/117/87 52/116/87
f 45/74/88 50/118/88 34/117/88
f 45/74/89 48/73/89 50/118/89
f 48/73/90 33/119/90 50/118/90
f 48/73/91 49/114/91 33/119/91
f 48/73/92 46/72/92 49/114/92
f 46/72/93 32/79/93 49/114/93
f 46/72/94 47/80/94 32/79/94
f 46/72/95 41/69/95 47/80/95
f 41/69/96 31/76/96 47/80/96
f 44/71/97 45/74/97 34/117/97
f 44/71/98 42/68/98 45/74/98
f 42/68/99 29/67/99 45/74/99
f 41/69/100 43/77/100 31/76/100
f 41/69/101 42/68/101 43/77/101
f 42/68/102 30/70/102 43/77/102
f 74/120/15 71/121/15 72/122/15
f 78/123/16 73/124/16 74/125/16
f 76/126/17 77/127/17 78/128/17
f 72/129/18 75/130/18 76/131/18
f 73/132/19 75/133/19 71/134/19
f 72/122/15 80/135/15 74/120/15
f 82/136/20 79/137/20 81/138/20
f 76/131/21 79/139/21 72/129/21
f 74/125/22 82/140/22 78/123/22
f 78/128/17 81/141/17 76/126/17
f 18/41/15 20/56/15 19/42/15
f 24/44/16 23/142/16 19/45/16
f 24/47/17 22/64/17 21/48/17
f 18/50/18 17/143/18 21/51/18
f 19/53/19 23/144/19 21/54/19
f 20/56/15 18/41/15 25/57/15
f 28/59/20 26/145/20 25/60/20
f 22/52/21 27/146/21 25/62/21
f 20/46/22 26/147/22 28/63/22
f 22/64/17 24/47/17 28/65/17
f 74/120/15 73/148/15 71/121/15
f 78/123/16 77/149/16 73/124/16
f 76/126/17 75/150/17 77/127/17
f 72/129/18 71/151/18 75/130/18
f 73/132/19 77/152/19 75/133/19
f 72/122/15 79/153/15 80/135/15
f 82/136/20 80/154/20 79/137/20
f 76/131/21 81/155/21 79/139/21
f 74/125/22 80/156/22 82/140/22
f 78/128/17 82/157/17 81/141/17
f 85/158/103 91/159/103 93/160/103
f 90/161/4 85/162/4 86/163/4
f 90/161/104 97/164/104 89/165/104
f 88/166/2 83/167/2 87/168/2
f 83/169/105 89/170/105 87/171/105
f 90/172/106 84/173/106 88/174/106
f 94/175/11 91/176/11 92/177/11
f 86/178/107 92/179/107 84/173/107
f 85/162/108 94/180/108 86/163/108
f 83/167/109 92/181/109 91/182/109
f 96/183/7 97/184/7 98/185/7
f 87/168/110 96/186/110 88/166/110
f 87/171/111 97/187/111 95/188/111
f 88/174/112 98/189/112 90/172/112
f 85/158/103 83/169/103 91/159/103
f 90/161/4 89/165/4 85/162/4
f 90/161/104 98/190/104 97/164/104
f 88/166/2 84/191/2 83/167/2
f 83/169/105 85/158/105 89/170/105
f 90/172/106 86/178/106 84/173/106
f 94/175/11 93/192/11 91/176/11
f 86/178/107 94/193/107 92/179/107
f 85/162/108 93/194/108 94/180/108
f 83/167/109 84/191/109 92/181/109
f 96/183/7 95/195/7 97/184/7
f 87/168/110 95/196/110 96/186/110
f 87/171/111 89/170/111 97/187/111
f 88/174/112 96/197/112 98/189/112
