# Blender v2.77 (sub 0) OBJ File: 'wowee.blend'
# www.blender.org
mtllib tie1.mtl
o Cube.001_Cube.002
v 2.622916 -2.246137 -4.170371
v 2.541063 -2.732711 3.923278
v 2.536566 -2.241926 -4.170990
v 2.454712 -2.728500 3.922658
v 2.850854 2.469752 -3.884555
v 2.769000 1.983178 4.209093
v 2.764503 2.473964 -3.885175
v 2.682650 1.987389 4.208473
vn -0.0482 -0.9970 -0.0604
vn -0.9988 0.0487 -0.0072
vn 0.0482 0.9970 0.0604
vn 0.9988 -0.0487 0.0072
vn 0.0101 0.0600 -0.9981
vn -0.0101 -0.0600 0.9981
usemtl None
s off
f 2//1 4//1 3//1 1//1
f 4//2 8//2 7//2 3//2
f 8//3 6//3 5//3 7//3
f 6//4 2//4 1//4 5//4
f 1//5 3//5 7//5 5//5
f 6//6 8//6 4//6 2//6
o Cube_Cube.001
v 2.584903 -0.322793 -0.190522
v 2.560535 -0.340061 0.238205
v 2.005238 -0.312287 -0.223046
v 1.980870 -0.329555 0.205681
v 2.591693 0.106555 -0.172843
v 2.567325 0.089287 0.255884
v 2.012028 0.117061 -0.205367
v 1.987660 0.099793 0.223360
vn -0.0158 -0.9990 -0.0411
vn -0.9983 0.0181 -0.0560
vn 0.0158 0.9990 0.0411
vn 0.9983 -0.0181 0.0560
vn 0.0567 0.0402 -0.9976
vn -0.0567 -0.0402 0.9976
usemtl None
s off
f 10//7 12//7 11//7 9//7
f 12//8 16//8 15//8 11//8
f 16//9 14//9 13//9 15//9
f 14//10 10//10 9//10 13//10
f 9//11 11//11 15//11 13//11
f 14//12 16//12 12//12 10//12
o Icosphere
v 0.020916 0.124333 -2.068152
v 1.169582 1.497368 -0.826508
v 1.742158 -0.601210 -0.946881
v -0.079953 -1.792097 -1.036893
v -1.778644 -0.429503 -0.972165
v -1.006373 1.603488 -0.842135
v 1.778644 0.429503 0.972165
v 1.006373 -1.603488 0.842135
v -1.169582 -1.497368 0.826508
v -1.742158 0.601210 0.946881
v 0.079953 1.792097 1.036893
v -0.020916 -0.124333 2.068152
v 1.036301 -0.280298 -1.772192
v 0.699752 0.953206 -1.701439
v 1.711476 0.526749 -1.042371
v 0.095932 1.822630 -0.980800
v -0.579233 1.015581 -1.710624
v -0.034701 -0.980285 -1.825099
v 0.977015 -1.406754 -1.166034
v -1.033158 -0.179372 -1.787054
v -1.092451 -1.305828 -1.180896
v -1.636989 0.690051 -1.066417
v 0.734456 1.933502 0.123666
v -0.544534 1.995878 0.114481
v 2.069479 -0.100927 0.014862
v 1.732932 1.132593 0.085615
v 0.544534 -1.995878 -0.114481
v 1.615554 -1.295896 -0.061568
v -1.732932 -1.132593 -0.085615
v -0.734456 -1.933502 -0.123666
v -1.615554 1.295896 0.061568
v -2.069479 0.100927 -0.014862
v 1.092451 1.305828 1.180896
v 1.636989 -0.690051 1.066417
v -0.095932 -1.822630 0.980800
v -1.711476 -0.526748 1.042371
v -0.977015 1.406754 1.166034
v 1.033158 0.179372 1.787053
v 0.034701 0.980285 1.825099
v 0.579233 -1.015581 1.710624
v -0.699752 -0.953206 1.701439
v -1.036301 0.280298 1.772192
vt 0.7738 0.3065
vt 0.9975 0.2478
vt 0.8736 0.3402
vt 0.4425 0.3402
vt 0.3864 0.2478
vt 0.5350 0.3345
vt 0.8008 0.3983
vt 0.7257 0.3878
vt 0.6528 0.3149
vt 0.4829 0.4201
vt 0.3055 0.4177
vt 0.3586 0.3564
vt 0.3551 0.4660
vt 0.2015 0.4928
vt 0.2502 0.4485
vt 0.2423 0.5573
vt 0.7048 0.4782
vt 0.7590 0.4830
vt 0.7212 0.5705
vt 0.5992 0.3900
vt 0.6580 0.4244
vt 0.6054 0.4861
vt 0.4157 0.4295
vt 0.2999 0.5139
vt 0.1774 0.5799
vt 0.6607 0.5340
vt 0.5479 0.4427
vt 0.3993 0.5218
vt 0.4534 0.5170
vt 0.4202 0.6122
vt 0.2937 0.6100
vt 0.3525 0.5756
vt 0.3472 0.6851
vt 0.7481 0.6598
vt 0.8405 0.6655
vt 0.6919 0.7522
vt 0.6110 0.5823
vt 0.6642 0.6436
vt 0.5680 0.6598
vt 0.5071 0.5072
vt 0.5558 0.5515
vt 0.4952 0.6017
vt 0.4683 0.6935
vt 0.9583 0.6851
vt 0.2294 0.6655
vt 0.7885 0.5799
vt 0.8127 0.4928
vt 0.1896 0.3983
vt 0.2624 0.3402
vn 0.3292 0.1433 -0.9333
vn 0.3081 0.7248 -0.6162
vn 0.1911 -0.2201 -0.9566
vn -0.1979 -0.2011 -0.9594
vn -0.3002 0.1740 -0.9378
vn 0.3147 0.9091 -0.2732
vn 0.9469 -0.0015 -0.3215
vn 0.2752 -0.8826 -0.3813
vn -0.7722 -0.5166 -0.3699
vn -0.7478 0.5907 -0.3031
vn 0.6224 0.7793 -0.0727
vn 0.9289 -0.3441 -0.1372
vn -0.0465 -0.9816 -0.1853
vn -0.9559 -0.2522 -0.1507
vn -0.5425 0.8362 -0.0811
vn 0.6407 0.3374 0.6897
vn 0.5530 -0.5380 0.6362
vn -0.3081 -0.7248 0.6162
vn -0.7527 0.0352 0.6574
vn -0.1663 0.6917 0.7028
vn -0.1911 0.2201 0.9566
vn -0.3407 0.4593 0.8203
vn -0.6146 0.3986 0.6807
vn -0.3292 -0.1433 0.9333
vn -0.5937 -0.2066 0.7777
vn -0.6118 -0.4812 0.6278
vn -0.0255 -0.3869 0.9218
vn -0.0373 -0.6529 0.7565
vn 0.2273 -0.7509 0.6201
vn 0.3002 -0.1740 0.9378
vn 0.5596 -0.2628 0.7860
vn 0.7430 -0.0378 0.6682
vn 0.1979 0.2011 0.9594
vn 0.3720 0.4246 0.8254
vn 0.2227 0.6727 0.7056
vn -0.2752 0.8826 0.3813
vn -0.5402 0.8091 0.2311
vn -0.7235 0.5895 0.3591
vn -0.9469 0.0015 0.3215
vn -0.9496 -0.2684 0.1622
vn -0.8060 -0.5149 0.2919
vn -0.3147 -0.9091 0.2732
vn -0.0492 -0.9906 0.1279
vn 0.2208 -0.9352 0.2770
vn 0.7478 -0.5907 0.3031
vn 0.9165 -0.3594 0.1756
vn 0.9378 -0.0905 0.3350
vn 0.7722 0.5166 0.3699
vn 0.6130 0.7529 0.2394
vn 0.3543 0.8519 0.3858
vn -0.9289 0.3441 0.1372
vn -0.9165 0.3594 -0.1756
vn -0.9378 0.0905 -0.3350
vn -0.6224 -0.7793 0.0727
vn -0.6130 -0.7529 -0.2394
vn -0.3543 -0.8519 -0.3858
vn 0.5425 -0.8362 0.0811
vn 0.5402 -0.8091 -0.2311
vn 0.7235 -0.5895 -0.3591
vn 0.9559 0.2522 0.1507
vn 0.9496 0.2684 -0.1622
vn 0.8060 0.5149 -0.2919
vn 0.0465 0.9816 0.1853
vn 0.0492 0.9906 -0.1279
vn -0.2208 0.9352 -0.2770
vn -0.5530 0.5380 -0.6362
vn -0.5596 0.2628 -0.7860
vn -0.7430 0.0378 -0.6682
vn -0.6407 -0.3374 -0.6897
vn -0.3720 -0.4246 -0.8254
vn -0.2227 -0.6727 -0.7056
vn 0.1663 -0.6917 -0.7028
vn 0.3407 -0.4593 -0.8203
vn 0.6146 -0.3986 -0.6807
vn -0.2273 0.7509 -0.6201
vn 0.0373 0.6529 -0.7565
vn 0.0255 0.3869 -0.9218
vn 0.7527 -0.0352 -0.6574
vn 0.5937 0.2066 -0.7777
vn 0.6118 0.4812 -0.6278
usemtl TIE_Body
s off
f 17/1/13 30/2/13 29/3/13
f 18/4/14 30/5/14 32/6/14
f 17/1/15 29/3/15 34/7/15
f 17/1/16 34/7/16 36/8/16
f 17/1/17 36/8/17 33/9/17
f 18/4/18 32/6/18 39/10/18
f 19/11/19 31/12/19 41/13/19
f 20/14/20 35/15/20 43/16/20
f 21/17/21 37/18/21 45/19/21
f 22/20/22 38/21/22 47/22/22
f 18/4/23 39/10/23 42/23/23
f 19/11/24 41/13/24 44/24/24
f 20/14/25 43/16/25 46/25/25
f 21/17/26 45/19/26 48/26/26
f 22/20/27 47/22/27 40/27/27
f 23/28/28 49/29/28 54/30/28
f 24/31/29 50/32/29 56/33/29
f 25/34/30 51/35/30 57/36/30
f 26/37/31 52/38/31 58/39/31
f 27/40/32 53/41/32 55/42/32
f 55/42/33 58/39/33 28/43/33
f 55/42/34 53/41/34 58/39/34
f 53/41/35 26/37/35 58/39/35
f 58/39/36 57/36/36 28/43/36
f 58/39/37 52/38/37 57/36/37
f 52/38/38 25/34/38 57/36/38
f 57/36/39 56/44/39 28/43/39
f 57/36/40 51/35/40 56/44/40
f 51/45/41 24/31/41 56/33/41
f 56/33/42 54/30/42 28/43/42
f 56/33/43 50/32/43 54/30/43
f 50/32/44 23/28/44 54/30/44
f 54/30/45 55/42/45 28/43/45
f 54/30/46 49/29/46 55/42/46
f 49/29/47 27/40/47 55/42/47
f 40/27/48 53/41/48 27/40/48
f 40/27/49 47/22/49 53/41/49
f 47/22/50 26/37/50 53/41/50
f 48/26/51 52/38/51 26/37/51
f 48/26/52 45/19/52 52/38/52
f 45/19/53 25/34/53 52/38/53
f 46/46/54 51/35/54 25/34/54
f 46/25/55 43/16/55 51/45/55
f 43/16/56 24/31/56 51/45/56
f 44/24/57 50/32/57 24/31/57
f 44/24/58 41/13/58 50/32/58
f 41/13/59 23/28/59 50/32/59
f 42/23/60 49/29/60 23/28/60
f 42/23/61 39/10/61 49/29/61
f 39/10/62 27/40/62 49/29/62
f 47/22/63 48/26/63 26/37/63
f 47/22/64 38/21/64 48/26/64
f 38/21/65 21/17/65 48/26/65
f 45/19/66 46/46/66 25/34/66
f 45/19/67 37/18/67 46/46/67
f 37/18/68 20/47/68 46/46/68
f 43/16/69 44/24/69 24/31/69
f 43/16/70 35/15/70 44/24/70
f 35/15/71 19/11/71 44/24/71
f 41/13/72 42/23/72 23/28/72
f 41/13/73 31/12/73 42/23/73
f 31/12/74 18/4/74 42/23/74
f 39/10/75 40/27/75 27/40/75
f 39/10/76 32/6/76 40/27/76
f 32/6/77 22/20/77 40/27/77
f 33/9/78 38/21/78 22/20/78
f 33/9/79 36/8/79 38/21/79
f 36/8/80 21/17/80 38/21/80
f 36/8/81 37/18/81 21/17/81
f 36/8/82 34/7/82 37/18/82
f 34/7/83 20/47/83 37/18/83
f 34/48/84 35/15/84 20/14/84
f 34/48/85 29/49/85 35/15/85
f 29/49/86 19/11/86 35/15/86
f 32/6/87 33/9/87 22/20/87
f 32/6/88 30/5/88 33/9/88
f 30/2/89 17/1/89 33/9/89
f 29/49/90 31/12/90 19/11/90
f 29/49/91 30/5/91 31/12/91
f 30/5/92 18/4/92 31/12/92
o Cube.002_Cube.003
v -2.589138 -1.991950 -4.207801
v -2.670992 -2.478524 3.885847
v -2.675489 -1.987738 -4.208421
v -2.757342 -2.474313 3.885227
v -2.361200 2.723940 -3.921986
v -2.443054 2.237365 4.171662
v -2.447551 2.728151 -3.922606
v -2.529405 2.241577 4.171042
vn -0.0482 -0.9970 -0.0604
vn -0.9988 0.0487 -0.0072
vn 0.0482 0.9970 0.0604
vn 0.9988 -0.0487 0.0072
vn 0.0101 0.0600 -0.9981
vn -0.0101 -0.0600 0.9981
usemtl None
s off
f 60//93 62//93 61//93 59//93
f 62//94 66//94 65//94 61//94
f 66//95 64//95 63//95 65//95
f 64//96 60//96 59//96 63//96
f 59//97 61//97 65//97 63//97
f 64//98 66//98 62//98 60//98
o Cube.003_Cube.004
v -1.993611 -0.104518 -0.241728
v -1.997950 -0.130307 0.187242
v -2.573579 -0.076234 -0.245893
v -2.577918 -0.102022 0.183077
v -1.972901 0.323962 -0.215759
v -1.977239 0.298173 0.213210
v -2.552869 0.352247 -0.219924
v -2.557208 0.326458 0.209045
vn -0.0482 -0.9970 -0.0604
vn -0.9988 0.0487 -0.0072
vn 0.0482 0.9970 0.0604
vn 0.9988 -0.0487 0.0072
vn 0.0101 0.0600 -0.9981
vn -0.0101 -0.0600 0.9981
usemtl None
s off
f 68//99 70//99 69//99 67//99
f 70//100 74//100 73//100 69//100
f 74//101 72//101 71//101 73//101
f 72//102 68//102 67//102 71//102
f 67//103 69//103 73//103 71//103
f 72//104 74//104 70//104 68//104
